name rise49.8558peak67.6521fall70.3087.mot
datacolumns 19
datarows 33
range 6.97331100000000 7.02663800000000
endheader
time	ground_force1_vx	ground_force1_vy	ground_force1_vz	ground_force1_px	ground_force1_py	ground_force1_pz	ground_force2_vx	ground_force2_vy	ground_force2_vz	ground_force2_px	ground_force2_py	ground_force2_pz	ground_torque1_x	ground_torque1_y	ground_torque1_z	ground_torque2_x	ground_torque2_y	ground_torque2_z	
6.97331100000000	60.11727900000000	727.44587400000000	62.20585900000000	0.37944100000000	0.00000000000000	0.12593600000000	0.00000000000000	0.00000000000000	0.00000000000000	0.00000000000000	0.00000000000000	0.00000000000000	0.00000000000000	30.54183100000000	0.00000000000000	0.00000000000000	0.00000000000000	0.00000000000000	
6.97497000000000	59.26364000000000	729.88223500000004	62.43958700000000	0.37768400000000	0.00000000000000	0.12597100000000	0.00000000000000	0.00000000000000	0.00000000000000	0.00000000000000	0.00000000000000	0.00000000000000	0.00000000000000	30.71392400000000	0.00000000000000	0.00000000000000	0.00000000000000	0.00000000000000	
6.97664700000000	58.41848200000000	732.27212099999997	62.67949300000000	0.37596300000000	0.00000000000000	0.12600400000000	0.00000000000000	0.00000000000000	0.00000000000000	0.00000000000000	0.00000000000000	0.00000000000000	0.00000000000000	30.89069100000000	0.00000000000000	0.00000000000000	0.00000000000000	0.00000000000000	
6.97830400000000	57.58232700000000	734.61319800000001	62.92522400000000	0.37427800000000	0.00000000000000	0.12603500000000	0.00000000000000	0.00000000000000	0.00000000000000	0.00000000000000	0.00000000000000	0.00000000000000	0.00000000000000	31.07192000000000	0.00000000000000	0.00000000000000	0.00000000000000	0.00000000000000	
6.97997400000000	56.75559400000000	736.90304300000003	63.17632100000000	0.37263100000000	0.00000000000000	0.12606400000000	0.00000000000000	0.00000000000000	0.00000000000000	0.00000000000000	0.00000000000000	0.00000000000000	0.00000000000000	31.25733700000000	0.00000000000000	0.00000000000000	0.00000000000000	0.00000000000000	
6.98163700000000	55.93861000000000	739.13916500000005	63.43222400000000	0.37102300000000	0.00000000000000	0.12609100000000	0.00000000000000	0.00000000000000	0.00000000000000	0.00000000000000	0.00000000000000	0.00000000000000	0.00000000000000	31.44660400000000	0.00000000000000	0.00000000000000	0.00000000000000	0.00000000000000	
6.98330500000000	55.13160500000000	741.31902000000002	63.69228000000000	0.36945500000000	0.00000000000000	0.12611600000000	0.00000000000000	0.00000000000000	0.00000000000000	0.00000000000000	0.00000000000000	0.00000000000000	0.00000000000000	31.63932700000000	0.00000000000000	0.00000000000000	0.00000000000000	0.00000000000000	
6.98497000000000	54.33472300000000	743.44003099999998	63.95574200000000	0.36792800000000	0.00000000000000	0.12613900000000	0.00000000000000	0.00000000000000	0.00000000000000	0.00000000000000	0.00000000000000	0.00000000000000	0.00000000000000	31.83505900000000	0.00000000000000	0.00000000000000	0.00000000000000	0.00000000000000	
6.98664300000000	53.54802100000000	745.49960799999997	64.22178500000000	0.36644200000000	0.00000000000000	0.12615900000000	0.00000000000000	0.00000000000000	0.00000000000000	0.00000000000000	0.00000000000000	0.00000000000000	0.00000000000000	32.03330000000000	0.00000000000000	0.00000000000000	0.00000000000000	0.00000000000000	
6.98831100000000	52.77147700000000	747.49516300000005	64.48950100000000	0.36499900000000	0.00000000000000	0.12617600000000	0.00000000000000	0.00000000000000	0.00000000000000	0.00000000000000	0.00000000000000	0.00000000000000	0.00000000000000	32.23350600000000	0.00000000000000	0.00000000000000	0.00000000000000	0.00000000000000	
6.98997100000000	52.00499700000000	749.42412800000000	64.75791599999999	0.36359800000000	0.00000000000000	0.12619100000000	0.00000000000000	0.00000000000000	0.00000000000000	0.00000000000000	0.00000000000000	0.00000000000000	0.00000000000000	32.43508700000000	0.00000000000000	0.00000000000000	0.00000000000000	0.00000000000000	
6.99164000000000	51.24841400000000	751.28397500000005	65.02599300000000	0.36223900000000	0.00000000000000	0.12620200000000	0.00000000000000	0.00000000000000	0.00000000000000	0.00000000000000	0.00000000000000	0.00000000000000	0.00000000000000	32.63741800000000	0.00000000000000	0.00000000000000	0.00000000000000	0.00000000000000	
6.99331000000000	50.50149900000000	753.07223199999999	65.29263700000000	0.36092300000000	0.00000000000000	0.12621100000000	0.00000000000000	0.00000000000000	0.00000000000000	0.00000000000000	0.00000000000000	0.00000000000000	0.00000000000000	32.83983900000000	0.00000000000000	0.00000000000000	0.00000000000000	0.00000000000000	
6.99497800000000	49.76396500000000	754.78649900000005	65.55670900000000	0.35964900000000	0.00000000000000	0.12621700000000	0.00000000000000	0.00000000000000	0.00000000000000	0.00000000000000	0.00000000000000	0.00000000000000	0.00000000000000	33.04165800000000	0.00000000000000	0.00000000000000	0.00000000000000	0.00000000000000	
6.99663800000000	49.03547300000000	756.42446500000005	65.81703100000000	0.35841700000000	0.00000000000000	0.12621900000000	0.00000000000000	0.00000000000000	0.00000000000000	0.00000000000000	0.00000000000000	0.00000000000000	0.00000000000000	33.24216200000000	0.00000000000000	0.00000000000000	0.00000000000000	0.00000000000000	
6.99830800000000	48.31563900000000	757.98392400000000	66.07239400000000	0.35722700000000	0.00000000000000	0.12621800000000	0.00000000000000	0.00000000000000	0.00000000000000	0.00000000000000	0.00000000000000	0.00000000000000	0.00000000000000	33.44061500000000	0.00000000000000	0.00000000000000	0.00000000000000	0.00000000000000	
6.99997500000000	47.60403800000000	759.46278800000005	66.32156700000000	0.35607700000000	0.00000000000000	0.12621400000000	0.00000000000000	0.00000000000000	0.00000000000000	0.00000000000000	0.00000000000000	0.00000000000000	0.00000000000000	33.63626300000000	0.00000000000000	0.00000000000000	0.00000000000000	0.00000000000000	
7.00164100000000	46.90021200000000	760.85910100000001	66.56330500000000	0.35496700000000	0.00000000000000	0.12620600000000	0.00000000000000	0.00000000000000	0.00000000000000	0.00000000000000	0.00000000000000	0.00000000000000	0.00000000000000	33.82834300000000	0.00000000000000	0.00000000000000	0.00000000000000	0.00000000000000	
7.00330500000000	46.20367700000000	762.17105300000003	66.79636000000001	0.35389600000000	0.00000000000000	0.12619400000000	0.00000000000000	0.00000000000000	0.00000000000000	0.00000000000000	0.00000000000000	0.00000000000000	0.00000000000000	34.01608500000000	0.00000000000000	0.00000000000000	0.00000000000000	0.00000000000000	
7.00497700000000	45.51392700000000	763.39699499999995	67.01948600000000	0.35286300000000	0.00000000000000	0.12617900000000	0.00000000000000	0.00000000000000	0.00000000000000	0.00000000000000	0.00000000000000	0.00000000000000	0.00000000000000	34.19871400000000	0.00000000000000	0.00000000000000	0.00000000000000	0.00000000000000	
7.00664400000000	44.83043900000000	764.53544099999999	67.23144800000000	0.35186700000000	0.00000000000000	0.12616100000000	0.00000000000000	0.00000000000000	0.00000000000000	0.00000000000000	0.00000000000000	0.00000000000000	0.00000000000000	34.37545900000000	0.00000000000000	0.00000000000000	0.00000000000000	0.00000000000000	
7.00830400000000	44.15268400000000	765.58509000000004	67.43103300000000	0.35090600000000	0.00000000000000	0.12613800000000	0.00000000000000	0.00000000000000	0.00000000000000	0.00000000000000	0.00000000000000	0.00000000000000	0.00000000000000	34.54555400000000	0.00000000000000	0.00000000000000	0.00000000000000	0.00000000000000	
7.00997600000000	43.48012800000000	766.54482499999995	67.61705600000001	0.34997900000000	0.00000000000000	0.12611200000000	0.00000000000000	0.00000000000000	0.00000000000000	0.00000000000000	0.00000000000000	0.00000000000000	0.00000000000000	34.70824400000000	0.00000000000000	0.00000000000000	0.00000000000000	0.00000000000000	
7.01164400000000	42.81224000000000	767.41372600000000	67.78836500000000	0.34908400000000	0.00000000000000	0.12608200000000	0.00000000000000	0.00000000000000	0.00000000000000	0.00000000000000	0.00000000000000	0.00000000000000	0.00000000000000	34.86278700000000	0.00000000000000	0.00000000000000	0.00000000000000	0.00000000000000	
7.01330300000000	42.14849600000000	768.19107699999995	67.94385400000000	0.34822100000000	0.00000000000000	0.12604900000000	0.00000000000000	0.00000000000000	0.00000000000000	0.00000000000000	0.00000000000000	0.00000000000000	0.00000000000000	35.00846200000000	0.00000000000000	0.00000000000000	0.00000000000000	0.00000000000000	
7.01497400000000	41.48838600000000	768.87637099999995	68.08246500000000	0.34738600000000	0.00000000000000	0.12601200000000	0.00000000000000	0.00000000000000	0.00000000000000	0.00000000000000	0.00000000000000	0.00000000000000	0.00000000000000	35.14456900000000	0.00000000000000	0.00000000000000	0.00000000000000	0.00000000000000	
7.01663700000000	40.83141500000000	769.46931199999995	68.20319700000000	0.34657800000000	0.00000000000000	0.12597000000000	0.00000000000000	0.00000000000000	0.00000000000000	0.00000000000000	0.00000000000000	0.00000000000000	0.00000000000000	35.27043600000000	0.00000000000000	0.00000000000000	0.00000000000000	0.00000000000000	
7.01830700000000	40.17711200000000	769.96982200000002	68.30511400000000	0.34579500000000	0.00000000000000	0.12592600000000	0.00000000000000	0.00000000000000	0.00000000000000	0.00000000000000	0.00000000000000	0.00000000000000	0.00000000000000	35.38542000000000	0.00000000000000	0.00000000000000	0.00000000000000	0.00000000000000	
7.01997400000000	39.52503400000000	770.37804400000005	68.38734599999999	0.34503600000000	0.00000000000000	0.12587700000000	0.00000000000000	0.00000000000000	0.00000000000000	0.00000000000000	0.00000000000000	0.00000000000000	0.00000000000000	35.48891200000000	0.00000000000000	0.00000000000000	0.00000000000000	0.00000000000000	
7.02163700000000	38.87476600000000	770.69433800000002	68.44909699999999	0.34429800000000	0.00000000000000	0.12582500000000	0.00000000000000	0.00000000000000	0.00000000000000	0.00000000000000	0.00000000000000	0.00000000000000	0.00000000000000	35.58034000000000	0.00000000000000	0.00000000000000	0.00000000000000	0.00000000000000	
7.02330300000000	38.22592700000000	770.91928900000005	68.48965200000001	0.34357900000000	0.00000000000000	0.12577000000000	0.00000000000000	0.00000000000000	0.00000000000000	0.00000000000000	0.00000000000000	0.00000000000000	0.00000000000000	35.65917200000000	0.00000000000000	0.00000000000000	0.00000000000000	0.00000000000000	
7.02496900000000	37.57817300000000	771.05369700000006	68.50837799999999	0.34287700000000	0.00000000000000	0.12571100000000	0.00000000000000	0.00000000000000	0.00000000000000	0.00000000000000	0.00000000000000	0.00000000000000	0.00000000000000	35.72491800000000	0.00000000000000	0.00000000000000	0.00000000000000	0.00000000000000	
7.02663800000000	36.93120200000000	771.09858399999996	68.50472800000000	0.34218900000000	0.00000000000000	0.12564800000000	0.00000000000000	0.00000000000000	0.00000000000000	0.00000000000000	0.00000000000000	0.00000000000000	0.00000000000000	35.77713600000000	0.00000000000000	0.00000000000000	0.00000000000000	0.00000000000000	
